<svg width="38" height="38" viewBox="0 0 38 38" fill="none" xmlns="http://www.w3.org/2000/svg">
<g filter="url(#filter0_ddd_23_277)">
<g clip-path="url(#clip0_23_277)">
<path d="M21.7315 14.2217C22.2787 14.2193 22.8196 14.12 23.3233 13.9294C23.8271 13.7388 24.2839 13.4607 24.6676 13.1108C25.0512 12.761 25.3543 12.3463 25.5595 11.8904C25.7647 11.4346 25.8679 10.9465 25.8633 10.4541C25.8541 9.45956 25.4063 8.50764 24.6184 7.80774C23.8305 7.10783 22.767 6.71727 21.6619 6.72198C20.5569 6.72668 19.5007 7.12626 18.7259 7.83282C17.951 8.53938 17.5209 9.49503 17.5301 10.4896C17.5346 10.982 17.6469 11.4691 17.8606 11.9232C18.0742 12.3773 18.3849 12.7893 18.775 13.1359C19.563 13.8358 20.6264 14.2264 21.7315 14.2217ZM21.5993 -0.0277326C28.0326 -0.0551166 33.3094 4.61741 33.3633 10.4222C33.4363 18.2968 21.8775 29.971 21.8775 29.971C21.8775 29.971 10.1032 18.3961 10.0301 10.5215C10.0043 7.73682 11.2087 5.06099 13.3784 3.08263C15.548 1.10427 18.5052 -0.014562 21.5993 -0.0277326ZM6.69685 10.5357C6.75944 17.2854 15.3117 26.4889 16.861 28.2073L15.2109 29.9994C15.2109 29.9994 3.43657 18.4245 3.36354 10.5499C3.31945 5.79506 6.79881 1.76026 11.6035 0.449814C8.55978 2.93776 6.65971 6.53084 6.69685 10.5357Z" fill="white" fill-opacity="0.56"/>
</g>
</g>
<defs>
<filter id="filter0_ddd_23_277" x="0" y="1.14208e-05" width="38.278" height="38.1265" filterUnits="userSpaceOnUse" color-interpolation-filters="sRGB">
<feFlood flood-opacity="0" result="BackgroundImageFix"/>
<feColorMatrix in="SourceAlpha" type="matrix" values="0 0 0 0 0 0 0 0 0 0 0 0 0 0 0 0 0 0 127 0" result="hardAlpha"/>
<feOffset dy="4"/>
<feGaussianBlur stdDeviation="2"/>
<feComposite in2="hardAlpha" operator="out"/>
<feColorMatrix type="matrix" values="0 0 0 0 0 0 0 0 0 0 0 0 0 0 0 0 0 0 0.25 0"/>
<feBlend mode="normal" in2="BackgroundImageFix" result="effect1_dropShadow_23_277"/>
<feColorMatrix in="SourceAlpha" type="matrix" values="0 0 0 0 0 0 0 0 0 0 0 0 0 0 0 0 0 0 127 0" result="hardAlpha"/>
<feOffset dy="4"/>
<feGaussianBlur stdDeviation="2"/>
<feComposite in2="hardAlpha" operator="out"/>
<feColorMatrix type="matrix" values="0 0 0 0 0 0 0 0 0 0 0 0 0 0 0 0 0 0 0.25 0"/>
<feBlend mode="normal" in2="effect1_dropShadow_23_277" result="effect2_dropShadow_23_277"/>
<feColorMatrix in="SourceAlpha" type="matrix" values="0 0 0 0 0 0 0 0 0 0 0 0 0 0 0 0 0 0 127 0" result="hardAlpha"/>
<feOffset dy="4"/>
<feGaussianBlur stdDeviation="2"/>
<feComposite in2="hardAlpha" operator="out"/>
<feColorMatrix type="matrix" values="0 0 0 0 0 0 0 0 0 0 0 0 0 0 0 0 0 0 0.25 0"/>
<feBlend mode="normal" in2="effect2_dropShadow_23_277" result="effect3_dropShadow_23_277"/>
<feBlend mode="normal" in="SourceGraphic" in2="effect3_dropShadow_23_277" result="shape"/>
</filter>
<clipPath id="clip0_23_277">
<rect width="30" height="30" fill="white" transform="matrix(0.999991 -0.00425657 0.00927322 0.999957 4 0.127697)"/>
</clipPath>
</defs>
</svg>
